<?xml version="1.0" encoding="utf-8"?>
<!-- Generator: Adobe Illustrator 21.1.0, SVG Export Plug-In . SVG Version: 6.00 Build 0)  -->
<svg version="1.1" id="Layer_1" xmlns="http://www.w3.org/2000/svg" xmlns:xlink="http://www.w3.org/1999/xlink" x="0px" y="0px"
	 viewBox="0 0 259.4 80.1" style="enable-background:new 0 0 259.4 80.1;" xml:space="preserve">
<style type="text/css">
	.st0{fill:#FFFFFF;}
	.st1{enable-background:new    ;}
</style>
<g>
	<path class="st0" d="M57.8,18.2l3.5,3.5c0.4,0.4,0.4,1,0,1.4L29.8,54.7c-0.6,0.6-1.6,0.2-1.7-0.7l-0.6-19.9
		c-0.1-0.9,1.1-1.3,1.7-0.7l5.7,5.7c0.2,0.2,0.5,0.2,0.7,0l20.9-21C56.8,17.8,57.5,17.8,57.8,18.2z"/>
	<path class="st0" d="M35.2,62l-3.5-3.5c-0.4-0.4-0.4-1,0-1.4l31.6-31.6c0.6-0.6,1.6-0.2,1.7,0.7L65.6,46c0.1,0.9-1.1,1.3-1.7,0.7
		l-5.7-5.6c-0.2-0.2-0.5-0.2-0.7,0L36.6,62C36.2,62.4,35.6,62.4,35.2,62z"/>
</g>
<path class="st0" d="M9.3,40.1c0,20.5,16.7,37.2,37.2,37.2s37.3-16.6,37.3-37.2S67.1,2.9,46.5,2.9S9.3,19.6,9.3,40.1z M76.8,40.1
	c0,16.7-13.6,30.2-30.2,30.2S16.3,56.8,16.3,40.1S29.9,9.9,46.5,9.9S76.8,23.5,76.8,40.1z"/>
<g class="st1">
	<path class="st0" d="M114.2,50.9c1.1,0,2.1-0.1,2.8-0.3c0.7-0.2,1.3-0.5,1.8-0.8c0.4-0.3,0.8-0.7,0.9-1.2c0.2-0.5,0.3-1,0.3-1.5
		c0-1.2-0.6-2.2-1.7-2.9c-1.1-0.8-3-1.6-5.7-2.5c-1.2-0.4-2.4-0.9-3.5-1.4c-1.2-0.5-2.2-1.2-3.2-2c-0.9-0.8-1.7-1.8-2.3-3
		c-0.6-1.2-0.9-2.6-0.9-4.2s0.3-3.2,0.9-4.5s1.5-2.5,2.7-3.4c1.1-0.9,2.5-1.7,4.2-2.2c1.6-0.5,3.5-0.8,5.5-0.8
		c2.4,0,4.5,0.3,6.3,0.8s3.2,1.1,4.4,1.7l-2.3,6.4c-1-0.5-2.1-1-3.4-1.4c-1.2-0.4-2.7-0.6-4.4-0.6c-1.9,0-3.3,0.3-4.2,0.8
		c-0.9,0.5-1.3,1.4-1.3,2.5c0,0.7,0.2,1.2,0.5,1.7s0.8,0.9,1.3,1.2c0.6,0.4,1.2,0.7,2,1c0.7,0.3,1.6,0.6,2.5,0.9
		c1.9,0.7,3.5,1.4,4.9,2.1c1.4,0.7,2.5,1.5,3.5,2.4c0.9,0.9,1.6,2,2.1,3.2s0.7,2.7,0.7,4.4c0,3.4-1.2,6-3.5,7.8
		c-2.4,1.9-5.9,2.8-10.7,2.8c-1.6,0-3-0.1-4.3-0.3s-2.4-0.4-3.4-0.7s-1.8-0.6-2.5-0.9c-0.7-0.3-1.3-0.6-1.8-0.9l2.3-6.4
		c1.1,0.6,2.4,1.1,4,1.6C109.9,50.7,111.9,50.9,114.2,50.9z"/>
	<path class="st0" d="M158.3,24.9c0.4,1.4,0.9,3,1.4,4.8c0.5,1.8,1,3.6,1.6,5.5s1.2,3.8,1.7,5.7c0.6,1.9,1.2,3.7,1.7,5.3
		c0.5-1.8,0.9-3.7,1.4-5.8s0.9-4.2,1.3-6.4c0.4-2.2,0.8-4.4,1.2-6.6s0.8-4.3,1.1-6.4h8.4c-1.2,6-2.6,12.2-4.2,18.4
		c-1.6,6.2-3.3,12.1-5.2,17.7h-7.4c-1.2-3.3-2.4-6.8-3.5-10.5s-2.3-7.3-3.4-11c-1.1,3.7-2.2,7.3-3.3,11s-2.3,7.1-3.5,10.5h-7.4
		c-1.8-5.6-3.6-11.5-5.1-17.7c-1.6-6.2-3-12.3-4.2-18.4h8.8c0.3,2,0.7,4.2,1.1,6.4c0.4,2.2,0.9,4.4,1.3,6.6c0.5,2.2,0.9,4.4,1.4,6.4
		s1,4,1.4,5.8c0.6-1.7,1.2-3.5,1.8-5.4s1.2-3.8,1.7-5.7c0.6-1.9,1.1-3.7,1.5-5.5s0.9-3.3,1.3-4.7C151.2,24.9,158.3,24.9,158.3,24.9z
		"/>
	<path class="st0" d="M205.5,57.1c-0.4-1.3-0.8-2.5-1.3-3.9c-0.5-1.3-0.9-2.6-1.4-3.9h-14.1c-0.5,1.3-0.9,2.6-1.4,4
		c-0.5,1.3-0.9,2.6-1.3,3.8h-8.4c1.4-3.9,2.6-7.5,3.9-10.8c1.2-3.3,2.4-6.4,3.6-9.3c1.2-2.9,2.3-5.7,3.4-8.3
		c1.1-2.6,2.3-5.2,3.5-7.7h7.7c1.2,2.5,2.4,5.1,3.5,7.7s2.3,5.4,3.5,8.3c1.2,2.9,2.4,6,3.6,9.3c1.2,3.3,2.5,6.9,3.9,10.8
		C214.2,57.1,205.5,57.1,205.5,57.1z M195.7,29.3c-0.2,0.5-0.4,1.2-0.8,2.1c-0.3,0.9-0.7,1.9-1.2,3.1c-0.4,1.2-0.9,2.5-1.5,3.9
		c-0.5,1.4-1.1,2.9-1.7,4.5h10.3c-0.6-1.6-1.1-3.1-1.6-4.5s-1-2.7-1.5-3.9s-0.9-2.2-1.2-3.1S195.9,29.8,195.7,29.3z"/>
	<path class="st0" d="M229.6,20.7c5.4,0,9.5,0.9,12.4,2.8s4.3,5,4.3,9.3s-1.5,7.5-4.4,9.4s-7.1,2.9-12.5,2.9h-2.5v12.1h-8.1V21.6
		c1.8-0.3,3.6-0.6,5.6-0.7C226.4,20.8,228.1,20.7,229.6,20.7z M230.1,27.6c-0.6,0-1.2,0-1.7,0.1c-0.6,0-1.1,0.1-1.5,0.1v10.4h2.5
		c2.8,0,4.9-0.4,6.3-1.1c1.4-0.8,2.1-2.2,2.1-4.3c0-1-0.2-1.8-0.5-2.5c-0.4-0.7-0.9-1.2-1.6-1.6c-0.7-0.4-1.5-0.7-2.5-0.8
		C232.4,27.7,231.3,27.6,230.1,27.6z"/>
</g>
</svg>
