<?xml version="1.0" encoding="utf-8"?>
<!-- Generator: Adobe Illustrator 21.1.0, SVG Export Plug-In . SVG Version: 6.00 Build 0)  -->
<svg version="1.1" id="Layer_1" xmlns="http://www.w3.org/2000/svg" xmlns:xlink="http://www.w3.org/1999/xlink" x="0px" y="0px"
	 viewBox="0 0 256 92" style="enable-background:new 0 0 256 92;" xml:space="preserve">
<style type="text/css">
	.st0{fill:#1B2035;}
	.st1{font-family:'Ubuntu-Bold';}
	.st2{font-size:60px;}
</style>
<g>
	<path class="st0" d="M58.2,25.1l3.5,3.5c0.4,0.4,0.4,1,0,1.4L30.2,61.6c-0.6,0.6-1.6,0.2-1.7-0.7l-0.6-19.9
		c-0.1-0.9,1.1-1.3,1.7-0.7l5.7,5.7c0.2,0.2,0.5,0.2,0.7,0L56.9,25C57.2,24.7,57.9,24.7,58.2,25.1z"/>
	<path class="st0" d="M35.6,68.9l-3.5-3.5c-0.4-0.4-0.4-1,0-1.4l31.6-31.6c0.6-0.6,1.6-0.2,1.7,0.7L66,52.9c0.1,0.9-1.1,1.3-1.7,0.7
		L58.6,48c-0.2-0.2-0.5-0.2-0.7,0L37,68.9C36.6,69.3,36,69.3,35.6,68.9z"/>
</g>
<path class="st0" d="M9.7,47c0,20.5,16.7,37.2,37.2,37.2S84.2,67.6,84.2,47S67.5,9.8,46.9,9.8S9.7,26.5,9.7,47z M77.2,47
	c0,16.7-13.6,30.2-30.2,30.2S16.7,63.7,16.7,47s13.6-30.2,30.2-30.2S77.2,30.4,77.2,47z"/>
<text transform="matrix(1 0 0 1 100.5926 68.9193)" class="st0 st1 st2">Swap</text>
</svg>
