<?xml version="1.0" encoding="utf-8"?>
<!-- Generator: Adobe Illustrator 21.1.0, SVG Export Plug-In . SVG Version: 6.00 Build 0)  -->
<svg version="1.1" id="Layer_1" xmlns="http://www.w3.org/2000/svg" xmlns:xlink="http://www.w3.org/1999/xlink" x="0px" y="0px"
	 viewBox="0 0 259.4 92" style="enable-background:new 0 0 259.4 92;" xml:space="preserve">
<style type="text/css">
	.st0{fill:#1B2035;}
</style>
<g>
	<path class="st0" d="M70.4,39.5v5c0,0.6-0.4,1-1,1H24.8c-0.9,0-1.3-1-0.7-1.7l13.7-14.5c0.6-0.7,1.7-0.2,1.7,0.7v8
		c0,0.3,0.2,0.5,0.5,0.5h29.5C70,38.5,70.4,39,70.4,39.5z"/>
	<path class="st0" d="M23.4,54.5v-5c0-0.6,0.4-1,1-1h44.7c0.9,0,1.3,1,0.7,1.7L56.2,64.7c-0.6,0.7-1.7,0.2-1.7-0.7v-8
		c0-0.3-0.2-0.5-0.5-0.5H24.4C23.9,55.5,23.4,55.1,23.4,54.5z"/>
</g>
<path class="st0" d="M9.7,47c0,20.5,16.7,37.2,37.2,37.2S84.2,67.6,84.2,47S67.5,9.8,46.9,9.8S9.7,26.5,9.7,47z M77.2,47
	c0,16.7-13.6,30.2-30.2,30.2S16.7,63.7,16.7,47s13.6-30.2,30.2-30.2S77.2,30.4,77.2,47z"/>
<g>
	<path class="st0" d="M118.6,63.4c-4.7,0-8.5-0.8-11.4-2.4l0.8-5.8c1.3,0.7,2.9,1.3,4.9,1.9s3.8,0.8,5.4,0.8c1.7,0,3-0.3,4-1
		c0.9-0.6,1.4-1.6,1.5-2.8c0-1.1-0.4-2-1.3-2.6s-2.6-1.4-5.1-2.4c-0.9-0.3-1.4-0.5-1.7-0.6c-3-1.2-5.1-2.4-6.4-3.9
		c-1.3-1.4-2-3.3-2-5.8c0-2.9,1.1-5.2,3.2-6.7c2.1-1.6,5.1-2.3,8.9-2.3c4.1,0,7.7,0.8,10.8,2.3l-1.9,5.3c-3.1-1.4-6-2.1-8.8-2.1
		c-1.5,0-2.7,0.3-3.6,0.8c-0.9,0.5-1.3,1.3-1.3,2.4c0,1,0.4,1.8,1.3,2.3s2.5,1.3,4.9,2.2c0.1,0,0.3,0.1,0.8,0.3
		c0.4,0.2,0.8,0.3,1,0.4c2.9,1.1,5.1,2.4,6.5,3.9c1.4,1.5,2.1,3.4,2.1,5.8c0,3.2-1.1,5.7-3.3,7.5C125.7,62.6,122.6,63.4,118.6,63.4z
		"/>
	<path class="st0" d="M143.4,62.8l-9.8-32.2h7.8l6.2,23.6c0.1-0.4,1.2-4.3,3.3-11.5c2.1-7.2,3.3-11.3,3.5-12.1h7.9
		c0.3,0.8,1.4,4.8,3.4,12c2,7.2,3.1,11,3.2,11.5l6.4-23.5h7.7L173,62.8h-7.6c-0.3-0.8-1.4-5.1-3.6-12.7c-2.1-7.7-3.3-11.8-3.4-12.4
		c-0.4,1.4-1.6,5.7-3.7,12.9c-2.1,7.2-3.3,11.2-3.6,12.2H143.4z"/>
	<path class="st0" d="M195.7,63.5c-3,0-5.4-0.8-7.3-2.5c-1.8-1.7-2.8-4-2.8-7.1c0-3.3,1.1-5.8,3.3-7.4s5.5-2.6,9.9-3.1
		c0.6-0.1,1.3-0.2,2-0.2c0.7-0.1,1.5-0.2,2.4-0.2c0.9-0.1,1.6-0.1,2.1-0.2V41c0-2-0.4-3.4-1.3-4.3c-0.9-0.9-2.3-1.3-4.1-1.3
		c-2.6,0-5.8,0.7-9.7,2.2c0-0.1-0.3-0.9-1-2.7c-0.6-1.7-0.9-2.6-1-2.6c3.8-1.6,7.9-2.4,12.3-2.4c4.3,0,7.5,0.9,9.5,2.8
		c2,1.9,3,4.9,3,9.2v21h-5.7c0-0.1-0.2-0.7-0.6-2s-0.6-1.9-0.6-2c-1.6,1.6-3.2,2.7-4.7,3.4S197.9,63.5,195.7,63.5z M197.8,58
		c1.8,0,3.3-0.4,4.6-1.3s2.3-1.9,2.8-3.1v-6.2c-0.1,0-0.6,0-1.5,0.1c-1,0.1-1.5,0.1-1.6,0.1c-3.1,0.3-5.4,0.9-6.8,1.8
		c-1.4,0.9-2.2,2.3-2.2,4.3c0,1.4,0.4,2.4,1.2,3.1S196.3,58,197.8,58z"/>
	<path class="st0" d="M220.7,76.2V30.7h6.6l0.8,4.5c1.1-1.7,2.5-3,4.2-3.9c1.7-0.9,3.7-1.4,5.8-1.4c2.6,0,5,0.7,7,2.2s3.5,3.5,4.6,6
		c1,2.5,1.6,5.4,1.6,8.6c0,5-1.2,9-3.6,12.2s-5.7,4.7-9.8,4.7c-2,0-3.9-0.4-5.5-1.2c-1.7-0.8-3-1.9-4.1-3.3c0.2,2.8,0.2,4.4,0.2,4.7
		v12.2L220.7,76.2z M236.1,57.6c2.3,0,4.1-1,5.4-2.9c1.3-1.9,2-4.6,2-8.2c0-3.6-0.7-6.3-2-8.1s-3.2-2.7-5.5-2.7
		c-5.1,0-7.6,3.5-7.7,10.4c0,4,0.7,6.9,2,8.8C231.6,56.7,233.5,57.6,236.1,57.6z"/>
</g>
</svg>
