<?xml version="1.0" encoding="utf-8"?>
<!-- Generator: Adobe Illustrator 21.1.0, SVG Export Plug-In . SVG Version: 6.00 Build 0)  -->
<svg version="1.1" id="Layer_1" xmlns="http://www.w3.org/2000/svg" xmlns:xlink="http://www.w3.org/1999/xlink" x="0px" y="0px"
	 viewBox="0 0 88.9 88.8" style="enable-background:new 0 0 88.9 88.8;" xml:space="preserve">
<style type="text/css">
	.st0{fill:#C1C1C1;}
</style>
<g>
	<path class="st0" d="M55.7,22.5l3.5,3.5c0.4,0.4,0.4,1,0,1.4L27.7,59c-0.6,0.6-1.6,0.2-1.7-0.7l-0.6-19.9c-0.1-0.9,1.1-1.3,1.7-0.7
		l5.7,5.7c0.2,0.2,0.5,0.2,0.7,0l20.9-21C54.7,22.1,55.4,22.1,55.7,22.5z"/>
	<path class="st0" d="M33.1,66.3l-3.5-3.5c-0.4-0.4-0.4-1,0-1.4l31.6-31.6c0.6-0.6,1.6-0.2,1.7,0.7l0.6,19.8
		c0.1,0.9-1.1,1.3-1.7,0.7l-5.7-5.6c-0.2-0.2-0.5-0.2-0.7,0L34.5,66.3C34.1,66.7,33.5,66.7,33.1,66.3z"/>
</g>
<path class="st0" d="M7.2,44.4c0,20.5,16.7,37.2,37.2,37.2S81.7,65,81.7,44.4S65,7.2,44.4,7.2S7.2,23.9,7.2,44.4z M74.7,44.4
	c0,16.7-13.6,30.2-30.2,30.2S14.2,61.1,14.2,44.4s13.6-30.2,30.2-30.2S74.7,27.8,74.7,44.4z"/>
</svg>
